<svg width="65" height="46" viewBox="0 0 65 46" fill="none" xmlns="http://www.w3.org/2000/svg">
<path d="M18.2656 4.616C19.0216 4.652 19.8136 4.67 20.6416 4.67C21.4696 4.67 22.2616 4.652 23.0176 4.616L23.0716 5.138C22.4956 5.258 22.1116 5.366 21.9196 5.462C21.7276 5.546 21.6196 5.696 21.5956 5.912C21.4996 6.62 21.4516 7.904 21.4516 9.764C21.4516 12.776 21.4876 14.648 21.5596 15.38L21.5956 15.758C21.6196 15.974 21.7336 16.13 21.9376 16.226C22.1416 16.31 22.5376 16.412 23.1256 16.532L23.0716 17.054C22.3156 17.018 21.4936 17 20.6056 17C19.7176 17 18.8956 17.018 18.1396 17.054L18.0856 16.532C18.6976 16.412 19.1116 16.304 19.3276 16.208C19.5436 16.112 19.6636 15.962 19.6876 15.758C19.7836 15.122 19.8316 13.568 19.8316 11.096C19.3636 11.036 18.4936 11.006 17.2216 11.006C15.3496 11.006 14.0776 11.03 13.4056 11.078L13.1536 11.096C13.1536 13.316 13.1896 14.756 13.2616 15.416L13.2976 15.758C13.3216 15.974 13.4356 16.13 13.6396 16.226C13.8436 16.31 14.2396 16.412 14.8276 16.532L14.7736 17.054C14.0176 17.018 13.1956 17 12.3076 17C11.4196 17 10.5976 17.018 9.84163 17.054L9.78763 16.532C10.3996 16.412 10.8136 16.304 11.0296 16.208C11.2456 16.112 11.3656 15.962 11.3896 15.758C11.4856 15.05 11.5336 13.766 11.5336 11.906C11.5336 8.894 11.4976 7.016 11.4256 6.272L11.3896 5.912C11.3656 5.696 11.2576 5.546 11.0656 5.462C10.8736 5.366 10.4896 5.258 9.91363 5.138L9.96763 4.616C10.7236 4.652 11.5156 4.67 12.3436 4.67C13.1716 4.67 13.9636 4.652 14.7196 4.616L14.7736 5.138C14.1976 5.258 13.8136 5.366 13.6216 5.462C13.4296 5.546 13.3216 5.696 13.2976 5.912C13.2136 6.488 13.1656 7.88 13.1536 10.088C13.6216 10.148 14.4856 10.178 15.7456 10.178C17.6296 10.178 18.9076 10.154 19.5796 10.106L19.8316 10.088C19.8316 8.12 19.7956 6.83 19.7236 6.218L19.6876 5.912C19.6636 5.696 19.5556 5.546 19.3636 5.462C19.1716 5.366 18.7876 5.258 18.2116 5.138L18.2656 4.616ZM28.5208 9.602C28.0288 9.602 27.6028 9.728 27.2428 9.98C26.8828 10.22 26.6188 10.526 26.4508 10.898C26.1268 11.582 25.9648 12.236 25.9648 12.86C25.9648 13.844 26.1628 14.666 26.5588 15.326C26.9548 15.974 27.5788 16.298 28.4308 16.298C28.8868 16.298 29.2888 16.196 29.6368 15.992C29.9848 15.776 30.2488 15.5 30.4288 15.164C30.7768 14.54 30.9628 13.916 30.9868 13.292C30.9868 10.832 30.1648 9.602 28.5208 9.602ZM28.6108 8.72C29.9788 8.72 30.9748 9.068 31.5988 9.764C32.2228 10.46 32.5348 11.432 32.5348 12.68C32.5348 13.916 32.1748 14.972 31.4548 15.848C30.7468 16.724 29.7088 17.162 28.3408 17.162C26.9728 17.162 25.9768 16.82 25.3528 16.136C24.7288 15.44 24.4168 14.474 24.4168 13.238C24.4168 12.002 24.7708 10.94 25.4788 10.052C26.1988 9.164 27.2428 8.72 28.6108 8.72ZM36.3922 4.022C36.3682 5.522 36.3562 7.718 36.3562 10.61C36.3562 13.502 36.4222 15.344 36.5542 16.136C36.5662 16.22 36.7222 16.304 37.0222 16.388C37.3222 16.472 37.5862 16.52 37.8142 16.532L37.7602 17.054C37.1842 17.018 36.4882 17 35.6722 17C34.8562 17 34.1602 17.018 33.5842 17.054L33.6382 16.532C33.8902 16.508 34.1542 16.46 34.4302 16.388C34.7182 16.304 34.8682 16.22 34.8802 16.136C34.9642 15.356 35.0062 13.856 35.0062 11.636C35.0062 8.024 34.9702 5.912 34.8982 5.3L34.8622 4.994L33.7102 4.652L33.6742 4.184C34.4422 4.184 35.2342 4.076 36.0502 3.86L36.3922 4.022ZM41.2965 4.022C41.2725 5.522 41.2605 7.718 41.2605 10.61C41.2605 13.502 41.3265 15.344 41.4585 16.136C41.4705 16.22 41.6265 16.304 41.9265 16.388C42.2265 16.472 42.4905 16.52 42.7185 16.532L42.6645 17.054C42.0885 17.018 41.3925 17 40.5765 17C39.7605 17 39.0645 17.018 38.4885 17.054L38.5425 16.532C38.7945 16.508 39.0585 16.46 39.3345 16.388C39.6225 16.304 39.7725 16.22 39.7845 16.136C39.8685 15.356 39.9105 13.856 39.9105 11.636C39.9105 8.024 39.8745 5.912 39.8025 5.3L39.7665 4.994L38.6145 4.652L38.5785 4.184C39.3465 4.184 40.1385 4.076 40.9545 3.86L41.2965 4.022ZM46.8668 9.314C46.5068 9.35 46.2368 9.422 46.0568 9.53C45.8768 9.638 45.7868 9.728 45.7868 9.8C45.7868 9.86 46.4228 11.852 47.6948 15.776C49.0148 12.008 49.6748 10.028 49.6748 9.836C49.6748 9.572 49.3448 9.398 48.6848 9.314L48.6308 8.792C49.0388 8.828 49.4708 8.846 49.9268 8.846L51.7628 8.792L51.8168 9.314C51.2048 9.398 50.8268 9.62 50.6828 9.98C50.1668 11.588 49.2968 13.928 48.0728 17C47.1488 19.34 46.2668 20.804 45.4268 21.392C45.1868 21.56 45.0008 21.656 44.8688 21.68C44.7488 21.716 44.6288 21.734 44.5088 21.734C44.3888 21.734 44.2148 21.59 43.9868 21.302C43.7708 21.026 43.6268 20.75 43.5548 20.474L43.8248 20.132C44.0528 20.24 44.3228 20.294 44.6348 20.294C45.4988 20.294 46.3628 19.196 47.2268 17L46.5968 16.622C45.6728 13.766 44.9588 11.768 44.4548 10.628L44.1848 10.052C44.0288 9.656 43.6628 9.41 43.0868 9.314L43.0328 8.792C43.8608 8.828 44.4968 8.846 44.9408 8.846L46.8128 8.792L46.8668 9.314Z" fill="#E8E8E8"/>
<path d="M28.4048 25.804L30.6008 35.038H30.6908C31.5068 32.386 32.3288 29.428 33.1568 26.164L33.5528 24.67H34.7228L37.8908 35.038H37.9808C39.3488 29.386 40.0328 26.314 40.0328 25.822C40.0328 25.666 39.9128 25.54 39.6728 25.444C39.4448 25.348 39.0488 25.246 38.4848 25.138L38.5388 24.616C39.2948 24.652 40.0328 24.67 40.7528 24.67C41.4848 24.67 42.2288 24.652 42.9848 24.616L43.0388 25.138C42.4868 25.246 42.0908 25.366 41.8508 25.498C41.6108 25.618 41.4668 25.792 41.4188 26.02C40.2068 30.904 39.2588 34.564 38.5748 37L36.9188 37.162L33.9308 27.442H33.8588L31.1768 37L29.5208 37.162L26.5868 25.912C26.5028 25.708 26.3588 25.558 26.1548 25.462C25.9628 25.354 25.5968 25.246 25.0568 25.138L25.1108 24.616C25.8668 24.652 26.6708 24.67 27.5228 24.67C28.3748 24.67 29.1788 24.652 29.9348 24.616L29.9888 25.138C29.1488 25.294 28.6568 25.444 28.5128 25.588C28.4408 25.648 28.4048 25.72 28.4048 25.804ZM46.362 33.22C45.378 33.244 44.628 33.43 44.112 33.778C43.596 34.126 43.338 34.504 43.338 34.912C43.338 35.32 43.44 35.62 43.644 35.812C43.86 35.992 44.202 36.082 44.67 36.082C45.138 36.082 45.702 35.884 46.362 35.488V33.22ZM47.676 37.162C46.956 37.162 46.536 36.772 46.416 35.992C45.36 36.772 44.448 37.162 43.68 37.162C43.164 37.162 42.726 37.006 42.366 36.694C42.006 36.37 41.826 35.872 41.826 35.2C41.826 34.528 42.18 33.922 42.888 33.382C43.608 32.842 44.766 32.518 46.362 32.41V30.736C46.362 30.4 46.236 30.142 45.984 29.962C45.744 29.782 45.402 29.692 44.958 29.692C44.514 29.692 44.16 29.818 43.896 30.07C43.632 30.31 43.5 30.622 43.5 31.006C43.5 31.15 43.518 31.312 43.554 31.492L43.158 31.672C42.918 31.54 42.69 31.36 42.474 31.132C42.27 30.904 42.168 30.742 42.168 30.646C42.168 30.538 42.246 30.388 42.402 30.196C42.57 29.992 42.792 29.776 43.068 29.548C43.344 29.32 43.71 29.128 44.166 28.972C44.634 28.804 45.156 28.72 45.732 28.72C46.308 28.72 46.776 28.864 47.136 29.152C47.496 29.428 47.676 29.938 47.676 30.682C47.676 31.414 47.712 32.968 47.784 35.344C47.796 35.92 48.012 36.208 48.432 36.208C48.612 36.208 48.798 36.16 48.99 36.064L49.17 36.532C48.714 36.952 48.216 37.162 47.676 37.162ZM53.1666 29.314C52.8066 29.35 52.5366 29.422 52.3566 29.53C52.1766 29.638 52.0866 29.728 52.0866 29.8C52.0866 29.86 52.7226 31.852 53.9946 35.776C55.3146 32.008 55.9746 30.028 55.9746 29.836C55.9746 29.572 55.6446 29.398 54.9846 29.314L54.9306 28.792C55.3386 28.828 55.7706 28.846 56.2266 28.846L58.0626 28.792L58.1166 29.314C57.5046 29.398 57.1266 29.62 56.9826 29.98C56.4666 31.588 55.5966 33.928 54.3726 37C53.4486 39.34 52.5666 40.804 51.7266 41.392C51.4866 41.56 51.3006 41.656 51.1686 41.68C51.0486 41.716 50.9286 41.734 50.8086 41.734C50.6886 41.734 50.5146 41.59 50.2866 41.302C50.0706 41.026 49.9266 40.75 49.8546 40.474L50.1246 40.132C50.3526 40.24 50.6226 40.294 50.9346 40.294C51.7986 40.294 52.6626 39.196 53.5266 37L52.8966 36.622C51.9726 33.766 51.2586 31.768 50.7546 30.628L50.4846 30.052C50.3286 29.656 49.9626 29.41 49.3866 29.314L49.3326 28.792C50.1606 28.828 50.7966 28.846 51.2406 28.846L53.1126 28.792L53.1666 29.314ZM63.6142 29.044L63.8662 29.17C63.8662 29.95 63.9022 30.544 63.9742 30.952L63.5062 31.114C63.3502 30.502 63.1282 30.076 62.8402 29.836C62.5642 29.596 62.2102 29.476 61.7782 29.476C61.3462 29.476 61.0042 29.59 60.7522 29.818C60.5002 30.046 60.3742 30.316 60.3742 30.628C60.3742 31.168 60.6862 31.612 61.3102 31.96L63.1462 32.968C63.9382 33.412 64.3342 34.054 64.3342 34.894C64.3342 35.506 64.0882 36.04 63.5962 36.496C63.1162 36.94 62.4262 37.162 61.5262 37.162C60.6262 37.162 59.7022 37.012 58.7542 36.712C58.8982 35.872 58.9702 35.182 58.9702 34.642L59.4382 34.48C59.5462 34.912 59.6242 35.206 59.6722 35.362C59.7322 35.518 59.8282 35.71 59.9602 35.938C60.1042 36.166 60.2842 36.316 60.5002 36.388C60.7162 36.46 61.0342 36.496 61.4542 36.496C61.8742 36.496 62.2222 36.376 62.4982 36.136C62.7742 35.896 62.9122 35.608 62.9122 35.272C62.9122 34.768 62.6302 34.36 62.0662 34.048L60.1222 32.968C59.3302 32.548 58.9342 31.906 58.9342 31.042C58.9342 30.43 59.1682 29.89 59.6362 29.422C60.1042 28.954 60.7582 28.72 61.5982 28.72C62.4382 28.72 63.1102 28.828 63.6142 29.044Z" fill="#E8E8E8"/>
<g clip-path="url(#clip0_132_93)">
<path d="M30.0384 39.6109L28.0662 37.6901C27.8924 37.5207 27.6141 37.5244 27.4449 37.6983C27.2755 37.8721 27.2792 38.1504 27.453 38.3197L29.4251 40.2405C29.512 40.3251 29.6251 40.3666 29.7375 40.3651C29.85 40.3636 29.9619 40.3193 30.0465 40.2323C30.2159 40.0585 30.2123 39.7803 30.0384 39.6109Z" fill="#E8E8E8"/>
<path d="M11.4413 34.6849C11.4445 34.9276 11.6438 35.1218 11.8865 35.1186C12.1292 35.1154 12.3233 34.916 12.3201 34.6734L12.3112 33.9956C12.9556 33.7404 13.4088 33.1073 13.3991 32.3742C13.3887 31.5819 12.8409 30.9205 12.1078 30.732C12.266 30.4679 12.3556 30.1583 12.3513 29.8285C12.3388 28.8826 11.5608 28.1229 10.6156 28.1321C10.7523 27.8816 10.8288 27.594 10.8248 27.289C10.8123 26.3411 10.031 25.5801 9.08315 25.5926L8.23766 25.6037C8.37429 25.3532 8.45073 25.0657 8.44672 24.7607C8.43425 23.8128 7.65296 23.0518 6.70511 23.0643L6.68378 23.0646C6.44111 23.0678 6.24696 23.2671 6.25015 23.5098C6.25334 23.7524 6.45267 23.9466 6.69535 23.9434L6.71667 23.9431C7.17993 23.937 7.56179 24.309 7.56789 24.7722C7.57398 25.2355 7.20204 25.6173 6.73878 25.6234L4.72784 25.6499C4.26458 25.656 3.88272 25.284 3.87663 24.8208C3.87096 24.39 4.20172 24.0182 4.62962 23.9743C4.87101 23.9495 5.04666 23.7337 5.02192 23.4922C4.99718 23.2508 4.78151 23.0753 4.53988 23.0999C4.30896 23.1236 4.09351 23.1915 3.90102 23.2943L0.971028 20.4404C0.797164 20.2711 0.518926 20.2747 0.349636 20.4486C0.180288 20.6225 0.183949 20.9007 0.357813 21.07L3.25806 23.895C3.08871 24.1662 2.99332 24.488 2.99785 24.8323C3.01033 25.7802 3.79162 26.5412 4.73946 26.5287L4.95659 26.5259C4.81996 26.7763 4.74352 27.0639 4.74753 27.3689C4.76 28.3168 5.54129 29.0778 6.48914 29.0653L6.51328 29.065C6.37664 29.3155 6.3002 29.603 6.30422 29.908C6.31669 30.8559 7.09798 31.6169 8.04583 31.6044L8.60816 31.597C8.47152 31.8474 8.39509 32.1351 8.3991 32.4401C8.41157 33.3879 9.19286 34.1489 10.1407 34.1364L11.434 34.1194L11.4414 34.6849L11.4413 34.6849ZM5.62624 27.3574C5.62015 26.8941 5.99209 26.5122 6.45535 26.5061L9.09465 26.4714C9.55791 26.4653 9.93977 26.8373 9.94587 27.3005C9.95197 27.7638 9.58002 28.1456 9.11676 28.1517L6.47746 28.1865C6.0142 28.1926 5.63234 27.8206 5.62624 27.3574ZM7.18293 29.8965C7.17683 29.4332 7.54878 29.0514 8.01204 29.0453L10.6212 29.0109C11.0845 29.0048 11.4663 29.3768 11.4724 29.84C11.4785 30.3033 11.1066 30.6852 10.6433 30.6913L8.03415 30.7256C7.57083 30.7317 7.18903 30.3597 7.18293 29.8965ZM9.27781 32.4285C9.27172 31.9652 9.64366 31.5834 10.1069 31.5773L11.6691 31.5567C12.1323 31.5506 12.5142 31.9226 12.5203 32.3858C12.5264 32.8491 12.1544 33.231 11.6912 33.2371L10.129 33.2576C9.66571 33.2637 9.28391 32.8918 9.27781 32.4285Z" fill="#E8E8E8"/>
<path d="M27.2714 33.4826C27.2683 32.9528 27.0576 32.4573 26.678 32.0876L24.0965 29.5731C23.6327 29.1214 23.0645 28.7696 22.4534 28.5556L19.0045 27.3483L17.707 23.9325C17.4771 23.3272 17.1104 22.7684 16.6466 22.3167L14.5007 20.2265C13.7251 19.471 12.4794 19.4874 11.7239 20.2631C11.5101 20.4825 11.3547 20.7459 11.263 21.0296L5.84332 15.4551C5.67408 15.2811 5.39586 15.2772 5.22188 15.4464C5.04784 15.6156 5.04394 15.8938 5.21312 16.0678L16.024 27.1873C16.0715 27.2361 16.1296 27.2732 16.1939 27.2957L22.1631 29.3852C22.6541 29.5571 23.1106 29.8398 23.4834 30.2028L26.0648 32.7173C26.2745 32.9215 26.3908 33.1951 26.3925 33.4877C26.3942 33.7804 26.281 34.0553 26.0737 34.2619C25.6559 34.6783 24.9727 34.6818 24.5505 34.2696L22.3969 32.1681C22.2696 32.0439 22.08 32.0086 21.9167 32.0788C21.7533 32.1489 21.6482 32.3106 21.6506 32.4884L21.7497 40.0256C21.7558 40.4888 21.3839 40.8707 20.9206 40.8768C20.4574 40.8829 20.0755 40.511 20.0694 40.0477L20.0345 37.3956C20.0313 37.1529 19.832 36.9588 19.5893 36.962C19.3467 36.9652 19.1525 37.1645 19.1557 37.4072L19.1816 39.3743C19.1846 39.6044 19.0962 39.8203 18.9327 39.9823C18.7693 40.1442 18.5521 40.2305 18.3214 40.2253C17.875 40.2153 17.507 39.8297 17.5008 39.3657L17.4638 36.5508C17.4606 36.3081 17.2613 36.1139 17.0186 36.1171C16.7759 36.1203 16.5818 36.3196 16.585 36.5623L16.6134 38.7212C16.6195 39.1845 16.2475 39.5663 15.7843 39.5724C15.321 39.5785 14.9392 39.2066 14.9331 38.7433L14.8963 35.9489C14.8931 35.7062 14.6938 35.5121 14.4511 35.5153C14.2084 35.5185 14.0143 35.7178 14.0175 35.9605L14.0361 37.3796C14.0392 37.6096 13.9508 37.8256 13.7873 37.9876C13.6239 38.1495 13.4065 38.2358 13.176 38.2307C12.7297 38.2206 12.3616 37.835 12.3555 37.371L12.3477 36.7784C12.3445 36.5357 12.1451 36.3416 11.9025 36.3448C11.6598 36.348 11.4656 36.5473 11.4688 36.79L11.4766 37.3826C11.4889 38.3143 12.2425 39.0889 13.1564 39.1093C13.4796 39.1167 13.7895 39.0359 14.0602 38.8777C14.1352 39.7677 14.8894 40.4632 15.7959 40.4512C16.1705 40.4463 16.5157 40.3214 16.7957 40.1135C17.0713 40.6853 17.6452 41.0893 18.3018 41.104C18.686 41.1129 19.0529 40.9965 19.3564 40.7734C19.6364 41.3611 20.2399 41.7647 20.9322 41.7556C21.1281 41.753 21.3158 41.7171 21.4905 41.6542L24.8655 44.9415C24.9524 45.0261 25.0654 45.0676 25.1779 45.0661C25.2903 45.0646 25.4022 45.0203 25.4869 44.9333C25.6562 44.7594 25.6526 44.4812 25.4787 44.3119L22.2244 41.1422C22.4811 40.8373 22.6342 40.4428 22.6286 40.014L22.5434 33.5389L25.945 36.8509C26.0319 36.9355 26.145 36.977 26.2574 36.9755C26.3698 36.974 26.4818 36.9297 26.5664 36.8427C26.7358 36.6688 26.7321 36.3906 26.5582 36.2213L25.7247 35.4094C26.0808 35.3331 26.4193 35.1583 26.6942 34.8843C27.0695 34.5102 27.2745 34.0124 27.2714 33.4826ZM12.0652 21.8378C11.9987 21.4895 12.1066 21.13 12.3536 20.8764C12.7709 20.448 13.4591 20.4389 13.8876 20.8562L16.0334 22.9463C16.4061 23.3094 16.7008 23.7583 16.8855 24.2447L17.9203 26.9689L16.582 26.5005C16.582 26.5004 12.0664 21.8444 12.0652 21.8378Z" fill="#E8E8E8"/>
</g>
<defs>
<clipPath id="clip0_132_93">
<rect width="30" height="30" fill="white" transform="translate(0 15.3947) rotate(-0.753848)"/>
</clipPath>
</defs>
</svg>
